<svg width="51" height="80" viewBox="0 0 51 80" fill="none" xmlns="http://www.w3.org/2000/svg">
<path fill-rule="evenodd" clip-rule="evenodd" d="M2.50177 0C1.97138 0 1.46272 0.210695 1.08769 0.585733C0.712648 0.960771 0.501953 1.46943 0.501953 1.99982V7.99926C0.501953 8.52965 0.712648 9.03831 1.08769 9.41335C1.46272 9.78838 1.97138 9.99908 2.50177 9.99908H4.50158V14.5447C3.91648 14.7515 3.40994 15.1348 3.05177 15.6416C2.69361 16.1484 2.50144 16.7538 2.50177 17.3744V69.9935C2.50004 72.3378 3.32204 74.6081 4.82415 76.4079C6.32626 78.2077 8.41298 79.4225 10.7198 79.8401C13.0265 80.2576 15.4067 79.8514 17.4444 78.6924C19.4821 77.5334 21.0478 75.6953 21.868 73.4992C19.5638 71.6258 17.7068 69.2617 16.4323 66.5795C15.1577 63.8972 14.4978 60.9643 14.5007 57.9947C14.4991 54.8898 15.2213 51.8272 16.6098 49.0501C17.9984 46.2731 20.0151 43.8578 22.4999 41.9961V17.3724C22.5002 16.7518 22.3081 16.1464 21.9499 15.6396C21.5917 15.1328 21.0852 14.7495 20.5001 14.5427V9.99908H22.4999C23.0303 9.99908 23.539 9.78838 23.914 9.41335C24.289 9.03831 24.4997 8.52965 24.4997 7.99926V1.99982C24.4997 1.46943 24.289 0.960771 23.914 0.585733C23.539 0.210695 23.0303 0 22.4999 0H2.50177ZM8.50121 15.3746V9.99908H16.5005V15.3746C16.5006 15.9948 16.6929 16.5998 17.0511 17.1062C17.4092 17.6126 17.9155 17.9956 18.5003 18.2023V27.9974H6.5014V18.2023C7.0865 17.9955 7.59304 17.6122 7.95121 17.1054C8.30938 16.5986 8.50154 15.9952 8.50121 15.3746ZM40.0123 66.3359C38.9452 67.0422 37.7524 67.5371 36.4986 67.7938V69.9935C37.029 69.9935 37.5377 70.2042 37.9127 70.5793C38.2878 70.9543 38.4984 71.463 38.4984 71.9934C38.4984 72.5237 38.2878 73.0324 37.9127 73.4074C37.5377 73.7825 37.029 73.9932 36.4986 73.9932H32.499C31.9686 73.9932 31.46 73.7825 31.0849 73.4074C30.7099 73.0324 30.4992 72.5237 30.4992 71.9934C30.4992 71.463 30.7099 70.9543 31.0849 70.5793C31.46 70.2042 31.9686 69.9935 32.499 69.9935V67.7938C31.2454 67.5377 30.0526 67.0435 28.9853 66.3379L27.3275 67.9937C27.6918 68.3709 27.8933 68.8761 27.8888 69.4004C27.8842 69.9247 27.6739 70.4263 27.3031 70.7971C26.9323 71.1679 26.4308 71.3782 25.9064 71.3828C25.3821 71.3873 24.8769 71.1858 24.4997 70.8215L21.672 67.9937C21.3077 67.6166 21.1061 67.1114 21.1107 66.5871C21.1153 66.0627 21.3256 65.5611 21.6964 65.1904C22.0671 64.8196 22.5687 64.6092 23.0931 64.6047C23.6174 64.6001 24.1226 64.8017 24.4997 65.166L26.1556 63.5081C25.45 62.4408 24.9557 61.2481 24.6997 59.9945H22.4999C22.4999 60.5249 22.2892 61.0335 21.9142 61.4086C21.5392 61.7836 21.0305 61.9943 20.5001 61.9943C19.9697 61.9943 19.4611 61.7836 19.086 61.4086C18.711 61.0335 18.5003 60.5249 18.5003 59.9945V55.9948C18.5003 55.4645 18.711 54.9558 19.086 54.5808C19.4611 54.2057 19.9697 53.995 20.5001 53.995C21.0305 53.995 21.5392 54.2057 21.9142 54.5808C22.2892 54.9558 22.4999 55.4645 22.4999 55.9948H24.6997C24.9597 54.719 25.4596 53.5291 26.1556 52.4812L24.4997 50.8233C24.1226 51.1876 23.6174 51.3892 23.0931 51.3846C22.5687 51.3801 22.0671 51.1697 21.6964 50.799C21.3256 50.4282 21.1153 49.9266 21.1107 49.4022C21.1061 48.8779 21.3077 48.3727 21.672 47.9956L23.0679 46.5997L23.0859 46.5797L23.1059 46.5617L24.4997 45.1678C24.6842 44.9768 24.9049 44.8245 25.1489 44.7197C25.3929 44.6149 25.6553 44.5597 25.9208 44.5574C26.1863 44.5551 26.4497 44.6057 26.6954 44.7062C26.9412 44.8068 27.1645 44.9553 27.3523 45.143C27.54 45.3308 27.6885 45.5541 27.7891 45.7999C27.8896 46.0456 27.9402 46.309 27.9379 46.5745C27.9356 46.84 27.8804 47.1025 27.7756 47.3464C27.6708 47.5904 27.5185 47.8111 27.3275 47.9956L28.9853 49.6514C30.0526 48.9458 31.2454 48.4516 32.499 48.1956V45.9958C31.9686 45.9958 31.46 45.7851 31.0849 45.41C30.7099 45.035 30.4992 44.5263 30.4992 43.9959C30.4992 43.4656 30.7099 42.9569 31.0849 42.5819C31.46 42.2068 31.9686 41.9961 32.499 41.9961H36.4986C37.029 41.9961 37.5377 42.2068 37.9127 42.5819C38.2878 42.9569 38.4984 43.4656 38.4984 43.9959C38.4984 44.5263 38.2878 45.035 37.9127 45.41C37.5377 45.7851 37.029 45.9958 36.4986 45.9958V48.1956C37.7745 48.4555 38.9644 48.9555 40.0123 49.6514L41.6702 47.9956C41.3059 47.6184 41.1043 47.1132 41.1089 46.5889C41.1134 46.0646 41.3237 45.563 41.6945 45.1922C42.0653 44.8214 42.5669 44.6111 43.0912 44.6065C43.6156 44.602 44.1207 44.8036 44.4979 45.1678L47.3256 47.9956C47.6899 48.3727 47.8915 48.8779 47.8869 49.4022C47.8824 49.9266 47.6721 50.4282 47.3013 50.799C46.9305 51.1697 46.4289 51.3801 45.9046 51.3846C45.3802 51.3892 44.8751 51.1876 44.4979 50.8233L42.842 52.4812C43.536 53.5291 44.0379 54.719 44.2979 55.9948H46.4977C46.4977 55.4645 46.7084 54.9558 47.0834 54.5808C47.4585 54.2057 47.9671 53.995 48.4975 53.995C49.0279 53.995 49.5366 54.2057 49.9116 54.5808C50.2866 54.9558 50.4973 55.4645 50.4973 55.9948V59.9945C50.4973 60.5249 50.2866 61.0335 49.9116 61.4086C49.5366 61.7836 49.0279 61.9943 48.4975 61.9943C47.9671 61.9943 47.4585 61.7836 47.0834 61.4086C46.7084 61.0335 46.4977 60.5249 46.4977 59.9945H44.2979C44.0419 61.2481 43.5477 62.4408 42.842 63.5081L44.4979 65.166C44.6824 64.975 44.903 64.8226 45.147 64.7178C45.391 64.613 45.6534 64.5579 45.919 64.5555C46.1845 64.5532 46.4478 64.6038 46.6936 64.7044C46.9394 64.8049 47.1627 64.9534 47.3504 65.1412C47.5382 65.329 47.6867 65.5523 47.7872 65.798C47.8878 66.0438 47.9384 66.3071 47.9361 66.5727C47.9338 66.8382 47.8786 67.1006 47.7738 67.3446C47.669 67.5886 47.5166 67.8092 47.3256 67.9937L44.4979 70.8215C44.1207 71.1858 43.6156 71.3873 43.0912 71.3828C42.5669 71.3782 42.0653 71.1679 41.6945 70.7971C41.3237 70.4263 41.1134 69.9247 41.1089 69.4004C41.1043 68.8761 41.3059 68.3709 41.6702 67.9937L40.0123 66.3359Z" fill="#B3B3B3"/>
<path fill-rule="evenodd" clip-rule="evenodd" d="M2.50177 0C1.97138 0 1.46272 0.210695 1.08769 0.585733C0.712648 0.960771 0.501953 1.46943 0.501953 1.99982V7.99926C0.501953 8.52965 0.712648 9.03831 1.08769 9.41335C1.46272 9.78838 1.97138 9.99908 2.50177 9.99908H4.50158V14.5447C3.91648 14.7515 3.40994 15.1348 3.05177 15.6416C2.69361 16.1484 2.50144 16.7538 2.50177 17.3744V69.9935C2.50004 72.3378 3.32204 74.6081 4.82415 76.4079C6.32626 78.2077 8.41298 79.4225 10.7198 79.8401C13.0265 80.2576 15.4067 79.8514 17.4444 78.6924C19.4821 77.5334 21.0478 75.6953 21.868 73.4992C19.5638 71.6258 17.7068 69.2617 16.4323 66.5795C15.1577 63.8972 14.4978 60.9643 14.5007 57.9947C14.4991 54.8898 15.2213 51.8272 16.6098 49.0501C17.9984 46.2731 20.0151 43.8578 22.4999 41.9961V17.3724C22.5002 16.7518 22.3081 16.1464 21.9499 15.6396C21.5917 15.1328 21.0852 14.7495 20.5001 14.5427V9.99908H22.4999C23.0303 9.99908 23.539 9.78838 23.914 9.41335C24.289 9.03831 24.4997 8.52965 24.4997 7.99926V1.99982C24.4997 1.46943 24.289 0.960771 23.914 0.585733C23.539 0.210695 23.0303 0 22.4999 0H2.50177ZM8.50121 15.3746V9.99908H16.5005V15.3746C16.5006 15.9948 16.6929 16.5998 17.0511 17.1062C17.4092 17.6126 17.9155 17.9956 18.5003 18.2023V27.9974H6.5014V18.2023C7.0865 17.9955 7.59304 17.6122 7.95121 17.1054C8.30938 16.5986 8.50154 15.9952 8.50121 15.3746ZM40.0123 66.3359C38.9452 67.0422 37.7524 67.5371 36.4986 67.7938V69.9935C37.029 69.9935 37.5377 70.2042 37.9127 70.5793C38.2878 70.9543 38.4984 71.463 38.4984 71.9934C38.4984 72.5237 38.2878 73.0324 37.9127 73.4074C37.5377 73.7825 37.029 73.9932 36.4986 73.9932H32.499C31.9686 73.9932 31.46 73.7825 31.0849 73.4074C30.7099 73.0324 30.4992 72.5237 30.4992 71.9934C30.4992 71.463 30.7099 70.9543 31.0849 70.5793C31.46 70.2042 31.9686 69.9935 32.499 69.9935V67.7938C31.2454 67.5377 30.0526 67.0435 28.9853 66.3379L27.3275 67.9937C27.6918 68.3709 27.8933 68.8761 27.8888 69.4004C27.8842 69.9247 27.6739 70.4263 27.3031 70.7971C26.9323 71.1679 26.4308 71.3782 25.9064 71.3828C25.3821 71.3873 24.8769 71.1858 24.4997 70.8215L21.672 67.9937C21.3077 67.6166 21.1061 67.1114 21.1107 66.5871C21.1153 66.0627 21.3256 65.5611 21.6964 65.1904C22.0671 64.8196 22.5687 64.6092 23.0931 64.6047C23.6174 64.6001 24.1226 64.8017 24.4997 65.166L26.1556 63.5081C25.45 62.4408 24.9557 61.2481 24.6997 59.9945H22.4999C22.4999 60.5249 22.2892 61.0335 21.9142 61.4086C21.5392 61.7836 21.0305 61.9943 20.5001 61.9943C19.9697 61.9943 19.4611 61.7836 19.086 61.4086C18.711 61.0335 18.5003 60.5249 18.5003 59.9945V55.9948C18.5003 55.4645 18.711 54.9558 19.086 54.5808C19.4611 54.2057 19.9697 53.995 20.5001 53.995C21.0305 53.995 21.5392 54.2057 21.9142 54.5808C22.2892 54.9558 22.4999 55.4645 22.4999 55.9948H24.6997C24.9597 54.719 25.4596 53.5291 26.1556 52.4812L24.4997 50.8233C24.1226 51.1876 23.6174 51.3892 23.0931 51.3846C22.5687 51.3801 22.0671 51.1697 21.6964 50.799C21.3256 50.4282 21.1153 49.9266 21.1107 49.4022C21.1061 48.8779 21.3077 48.3727 21.672 47.9956L23.0679 46.5997L23.0859 46.5797L23.1059 46.5617L24.4997 45.1678C24.6842 44.9768 24.9049 44.8245 25.1489 44.7197C25.3929 44.6149 25.6553 44.5597 25.9208 44.5574C26.1863 44.5551 26.4497 44.6057 26.6954 44.7062C26.9412 44.8068 27.1645 44.9553 27.3523 45.143C27.54 45.3308 27.6885 45.5541 27.7891 45.7999C27.8896 46.0456 27.9402 46.309 27.9379 46.5745C27.9356 46.84 27.8804 47.1025 27.7756 47.3464C27.6708 47.5904 27.5185 47.8111 27.3275 47.9956L28.9853 49.6514C30.0526 48.9458 31.2454 48.4516 32.499 48.1956V45.9958C31.9686 45.9958 31.46 45.7851 31.0849 45.41C30.7099 45.035 30.4992 44.5263 30.4992 43.9959C30.4992 43.4656 30.7099 42.9569 31.0849 42.5819C31.46 42.2068 31.9686 41.9961 32.499 41.9961H36.4986C37.029 41.9961 37.5377 42.2068 37.9127 42.5819C38.2878 42.9569 38.4984 43.4656 38.4984 43.9959C38.4984 44.5263 38.2878 45.035 37.9127 45.41C37.5377 45.7851 37.029 45.9958 36.4986 45.9958V48.1956C37.7745 48.4555 38.9644 48.9555 40.0123 49.6514L41.6702 47.9956C41.3059 47.6184 41.1043 47.1132 41.1089 46.5889C41.1134 46.0646 41.3237 45.563 41.6945 45.1922C42.0653 44.8214 42.5669 44.6111 43.0912 44.6065C43.6156 44.602 44.1207 44.8036 44.4979 45.1678L47.3256 47.9956C47.6899 48.3727 47.8915 48.8779 47.8869 49.4022C47.8824 49.9266 47.6721 50.4282 47.3013 50.799C46.9305 51.1697 46.4289 51.3801 45.9046 51.3846C45.3802 51.3892 44.8751 51.1876 44.4979 50.8233L42.842 52.4812C43.536 53.5291 44.0379 54.719 44.2979 55.9948H46.4977C46.4977 55.4645 46.7084 54.9558 47.0834 54.5808C47.4585 54.2057 47.9671 53.995 48.4975 53.995C49.0279 53.995 49.5366 54.2057 49.9116 54.5808C50.2866 54.9558 50.4973 55.4645 50.4973 55.9948V59.9945C50.4973 60.5249 50.2866 61.0335 49.9116 61.4086C49.5366 61.7836 49.0279 61.9943 48.4975 61.9943C47.9671 61.9943 47.4585 61.7836 47.0834 61.4086C46.7084 61.0335 46.4977 60.5249 46.4977 59.9945H44.2979C44.0419 61.2481 43.5477 62.4408 42.842 63.5081L44.4979 65.166C44.6824 64.975 44.903 64.8226 45.147 64.7178C45.391 64.613 45.6534 64.5579 45.919 64.5555C46.1845 64.5532 46.4478 64.6038 46.6936 64.7044C46.9394 64.8049 47.1627 64.9534 47.3504 65.1412C47.5382 65.329 47.6867 65.5523 47.7872 65.798C47.8878 66.0438 47.9384 66.3071 47.9361 66.5727C47.9338 66.8382 47.8786 67.1006 47.7738 67.3446C47.669 67.5886 47.5166 67.8092 47.3256 67.9937L44.4979 70.8215C44.1207 71.1858 43.6156 71.3873 43.0912 71.3828C42.5669 71.3782 42.0653 71.1679 41.6945 70.7971C41.3237 70.4263 41.1134 69.9247 41.1089 69.4004C41.1043 68.8761 41.3059 68.3709 41.6702 67.9937L40.0123 66.3359Z" fill="url(#paint0_linear_168_3575)"/>
<defs>
<linearGradient id="paint0_linear_168_3575" x1="0.501953" y1="40" x2="50.4973" y2="40" gradientUnits="userSpaceOnUse">
<stop stop-color="#1FA2FF"/>
<stop offset="0.5" stop-color="#12D8FA"/>
<stop offset="1" stop-color="#A6FFCB"/>
</linearGradient>
</defs>
</svg>
