<svg width="101" height="81" viewBox="0 0 101 81" fill="none" xmlns="http://www.w3.org/2000/svg">
<path d="M52.9298 0.632836L97.9315 25.6338C100.338 26.9776 101.213 30.0246 99.869 32.4309C98.5252 34.8372 95.4782 35.7123 93.0719 34.3685L50.5078 10.727L7.92809 34.3841C5.52175 35.7279 2.47476 34.8529 1.13096 32.4465C-0.212836 30.0402 0.662197 26.9932 3.06854 25.6494L48.0858 0.632836C49.6015 -0.210945 51.4297 -0.210945 52.9454 0.632836H52.9298ZM50.5078 25.0087C52.1655 25.0087 53.7552 25.6673 54.9274 26.8394C56.0995 28.0115 56.758 29.6013 56.758 31.259C56.758 32.9166 56.0995 34.5064 54.9274 35.6786C53.7552 36.8507 52.1655 37.5092 50.5078 37.5092C48.8501 37.5092 47.2604 36.8507 46.0882 35.6786C44.9161 34.5064 44.2576 32.9166 44.2576 31.259C44.2576 29.6013 44.9161 28.0115 46.0882 26.8394C47.2604 25.6673 48.8501 25.0087 50.5078 25.0087ZM23.0068 40.0093C24.6644 40.0093 26.2542 40.6678 27.4264 41.84C28.5985 43.0121 29.257 44.6019 29.257 46.2595C29.257 47.9172 28.5985 49.507 27.4264 50.6791C26.2542 51.8513 24.6644 52.5098 23.0068 52.5098C21.3491 52.5098 19.7593 51.8513 18.5872 50.6791C17.4151 49.507 16.7565 47.9172 16.7565 46.2595C16.7565 44.6019 17.4151 43.0121 18.5872 41.84C19.7593 40.6678 21.3491 40.0093 23.0068 40.0093ZM71.7586 46.2595C71.7586 44.6019 72.4171 43.0121 73.5893 41.84C74.7614 40.6678 76.3512 40.0093 78.0088 40.0093C79.6665 40.0093 81.2563 40.6678 82.4284 41.84C83.6006 43.0121 84.2591 44.6019 84.2591 46.2595C84.2591 47.9172 83.6006 49.507 82.4284 50.6791C81.2563 51.8513 79.6665 52.5098 78.0088 52.5098C76.3512 52.5098 74.7614 51.8513 73.5893 50.6791C72.4171 49.507 71.7586 47.9172 71.7586 46.2595ZM35.9604 76.7919L31.7571 68.9948V75.0106C31.7571 77.7763 29.5227 80.0108 26.7569 80.0108H19.2566C16.4909 80.0108 14.2565 77.7763 14.2565 75.0106V68.9948L10.0532 76.7919C9.06876 78.6201 6.80305 79.292 4.97486 78.3232C3.14666 77.3545 2.47476 75.0731 3.44355 73.2449L9.36565 62.2601C11.7564 57.8068 16.4128 55.0255 21.4755 55.0255H24.5225C27.0694 55.0255 29.507 55.7286 31.6165 56.9943L36.8667 47.2596C39.2574 42.8063 43.9138 40.0249 48.9765 40.0249H52.0235C57.0862 40.0249 61.727 42.8063 64.1333 47.2596L69.3835 56.9943C71.493 55.7286 73.9306 55.0255 76.4775 55.0255H79.5245C84.5872 55.0255 89.228 57.8068 91.6344 62.2601L97.5564 73.2449C98.5409 75.0731 97.8533 77.3388 96.0251 78.3232C94.1969 79.3077 91.9312 78.6201 90.9468 76.7919L86.7592 68.9948V75.0106C86.7592 77.7763 84.5247 80.0108 81.759 80.0108H74.2587C71.493 80.0108 69.2585 77.7763 69.2585 75.0106V68.9948L65.0552 76.7919C64.0708 78.6201 61.8051 79.292 59.9769 78.3232C58.1487 77.3545 57.4768 75.0731 58.4456 73.2449L64.1177 62.6977C63.8521 62.432 63.6177 62.1351 63.4458 61.7914L59.2581 53.9942V62.5101C59.2581 65.2759 57.0237 67.5103 54.2579 67.5103H46.7577C43.9919 67.5103 41.7575 65.2759 41.7575 62.5101V53.9942L37.5542 61.7914C37.3667 62.1351 37.1479 62.432 36.8823 62.6977L42.5544 73.2449C43.5388 75.0731 42.8513 77.3388 41.0231 78.3232C39.1949 79.3077 36.9292 78.6201 35.9448 76.7919H35.9604Z" fill="url(#paint0_linear_166_3077)"/>
<defs>
<linearGradient id="paint0_linear_166_3077" x1="0.5" y1="40.0054" x2="100.5" y2="40.0054" gradientUnits="userSpaceOnUse">
<stop stop-color="#1FA2FF"/>
<stop offset="0.5" stop-color="#12D8FA"/>
<stop offset="1" stop-color="#A6FFCB"/>
</linearGradient>
</defs>
</svg>
