<svg width="101" height="80" viewBox="0 0 101 80" fill="none" xmlns="http://www.w3.org/2000/svg">
<path d="M82.7438 49.6088C78.7483 52.0375 74.1593 53.3149 69.4835 53.2998C65.5663 53.2689 61.6934 52.4677 58.0854 50.9419C55.3047 54.8675 53.8165 59.5622 53.8278 64.373V76.6584C53.8288 77.1153 53.7359 77.5675 53.5547 77.9869C53.3736 78.4064 53.1082 78.7841 52.7749 79.0967C52.4417 79.4092 52.0477 79.6499 51.6175 79.8038C51.1874 79.9577 50.7301 80.0215 50.2742 79.9912C49.4176 79.9166 48.6208 79.521 48.0437 78.8835C47.4665 78.2461 47.1517 77.4141 47.1623 76.5543V71.3718L31.0733 55.2828C28.6816 56.1751 26.1522 56.6418 23.5995 56.6618C20.0854 56.6709 16.6369 55.7093 13.6345 53.8831C4.5569 48.3673 -0.329784 35.6736 0.615891 19.9138C0.663505 19.0984 1.00885 18.3289 1.58637 17.7514C2.16388 17.1739 2.93336 16.8286 3.7487 16.7809C19.5086 15.8519 32.2023 20.722 37.7013 29.7996C39.8619 33.3577 40.8051 37.5225 40.3884 41.6643C40.3625 41.9852 40.2442 42.2917 40.0478 42.5468C39.8514 42.8019 39.5853 42.9946 39.2817 43.1017C38.978 43.2088 38.6499 43.2256 38.3369 43.1502C38.024 43.0747 37.7395 42.9103 37.518 42.6766L29.5194 34.303C28.8893 33.7044 28.0503 33.3756 27.1812 33.3867C26.3121 33.3978 25.4818 33.748 24.8672 34.3626C24.2527 34.9771 23.9025 35.8075 23.8914 36.6765C23.8802 37.5456 24.209 38.3846 24.8077 39.0147L47.2539 62.0317C47.2789 61.7067 47.3081 61.3818 47.3414 61.061C48.0702 54.8818 50.7968 49.1097 55.1068 44.6221L76.1824 22.3508C76.8078 21.726 77.1593 20.8784 77.1597 19.9944C77.1601 19.1104 76.8093 18.2624 76.1845 17.6371C75.5597 17.0117 74.712 16.6601 73.828 16.6598C72.944 16.6594 72.096 17.0102 71.4707 17.635L51.0574 39.223C50.8531 39.4394 50.5945 39.5972 50.3086 39.6799C50.0227 39.7625 49.7198 39.7671 49.4315 39.6931C49.1432 39.6192 48.88 39.4693 48.6692 39.2591C48.4584 39.049 48.3078 38.7862 48.2329 38.4981C46.2582 31.216 47.1289 23.9672 50.8991 17.7433C58.3396 5.46202 75.6533 -1.11188 97.2164 0.154571C98.0317 0.202185 98.8012 0.547534 99.3787 1.12505C99.9562 1.70257 100.302 2.47204 100.349 3.28738C101.599 24.8546 95.0251 42.1684 82.7438 49.6088Z" fill="url(#paint0_linear_168_3396)"/>
<defs>
<linearGradient id="paint0_linear_168_3396" x1="0.5" y1="39.9993" x2="100.5" y2="39.9993" gradientUnits="userSpaceOnUse">
<stop stop-color="#1FA2FF"/>
<stop offset="0.5" stop-color="#12D8FA"/>
<stop offset="1" stop-color="#A6FFCB"/>
</linearGradient>
</defs>
</svg>
