<svg width="25" height="25" viewBox="0 0 25 25" fill="none" xmlns="http://www.w3.org/2000/svg">
<g clip-path="url(#clip0_4001_69)">
<path d="M12.5 0C5.59648 0 0 5.59648 0 12.5C0 19.4039 5.59648 25 12.5 25C19.4039 25 25 19.4039 25 12.5C25 5.59648 19.4039 0 12.5 0ZM12.5 23.4621C6.46914 23.4621 1.5625 18.5309 1.5625 12.5C1.5625 6.46909 6.46914 1.56245 12.5 1.56245C18.5309 1.56245 23.4375 6.46912 23.4375 12.5C23.4375 18.5308 18.5309 23.4621 12.5 23.4621ZM16.9191 8.08086C16.6141 7.77578 16.1195 7.77578 15.8145 8.08086L12.5 11.3953L9.18555 8.08086C8.88047 7.77578 8.38594 7.77578 8.08047 8.08086C7.77539 8.38594 7.77539 8.88047 8.08047 9.18555L11.3949 12.5L8.08047 15.8145C7.77539 16.1191 7.77539 16.6145 8.08047 16.9192C8.38555 17.2242 8.88008 17.2242 9.18555 16.9192L12.5 13.6047L15.8145 16.9192C16.1195 17.2242 16.6141 17.2242 16.9191 16.9192C17.2242 16.6145 17.2242 16.1191 16.9191 15.8145L13.6047 12.5L16.9191 9.18555C17.2246 8.88008 17.2246 8.38555 16.9191 8.08086Z" fill="#003C9D"/>
</g>
<defs>
<clipPath id="clip0_4001_69">
<rect width="25" height="25" fill="white"/>
</clipPath>
</defs>
</svg>
