<svg width="20" height="21" viewBox="0 0 20 21" fill="none" xmlns="http://www.w3.org/2000/svg">
<path d="M5.8 0.33374H14.2C17.4 0.33374 20 2.93374 20 6.13374V14.5337C20 16.072 19.3889 17.5472 18.3012 18.635C17.2135 19.7227 15.7383 20.3337 14.2 20.3337H5.8C2.6 20.3337 0 17.7337 0 14.5337V6.13374C0 4.59548 0.61107 3.12023 1.69878 2.03252C2.78649 0.94481 4.26174 0.33374 5.8 0.33374ZM5.6 2.33374C4.64522 2.33374 3.72955 2.71303 3.05442 3.38816C2.37928 4.06329 2 4.97896 2 5.93374V14.7337C2 16.7237 3.61 18.3337 5.6 18.3337H14.4C15.3548 18.3337 16.2705 17.9545 16.9456 17.2793C17.6207 16.6042 18 15.6885 18 14.7337V5.93374C18 3.94374 16.39 2.33374 14.4 2.33374H5.6ZM15.25 3.83374C15.5815 3.83374 15.8995 3.96544 16.1339 4.19986C16.3683 4.43428 16.5 4.75222 16.5 5.08374C16.5 5.41526 16.3683 5.7332 16.1339 5.96762C15.8995 6.20204 15.5815 6.33374 15.25 6.33374C14.9185 6.33374 14.6005 6.20204 14.3661 5.96762C14.1317 5.7332 14 5.41526 14 5.08374C14 4.75222 14.1317 4.43428 14.3661 4.19986C14.6005 3.96544 14.9185 3.83374 15.25 3.83374ZM10 5.33374C11.3261 5.33374 12.5979 5.86052 13.5355 6.79821C14.4732 7.73589 15 9.00766 15 10.3337C15 11.6598 14.4732 12.9316 13.5355 13.8693C12.5979 14.807 11.3261 15.3337 10 15.3337C8.67392 15.3337 7.40215 14.807 6.46447 13.8693C5.52678 12.9316 5 11.6598 5 10.3337C5 9.00766 5.52678 7.73589 6.46447 6.79821C7.40215 5.86052 8.67392 5.33374 10 5.33374ZM10 7.33374C9.20435 7.33374 8.44129 7.64981 7.87868 8.21242C7.31607 8.77503 7 9.53809 7 10.3337C7 11.1294 7.31607 11.8925 7.87868 12.4551C8.44129 13.0177 9.20435 13.3337 10 13.3337C10.7956 13.3337 11.5587 13.0177 12.1213 12.4551C12.6839 11.8925 13 11.1294 13 10.3337C13 9.53809 12.6839 8.77503 12.1213 8.21242C11.5587 7.64981 10.7956 7.33374 10 7.33374Z" fill="white"/>
</svg>
