<svg width="20" height="21" viewBox="0 0 20 21" fill="none" xmlns="http://www.w3.org/2000/svg">
<path fill-rule="evenodd" clip-rule="evenodd" d="M2.68293 0.33374C1.97137 0.33374 1.28896 0.616405 0.785811 1.11955C0.282665 1.6227 0 2.30511 0 3.01667C0 3.72822 0.282665 4.41064 0.785811 4.91378C1.28896 5.41693 1.97137 5.69959 2.68293 5.69959C3.39448 5.69959 4.0769 5.41693 4.58004 4.91378C5.08319 4.41064 5.36585 3.72822 5.36585 3.01667C5.36585 2.30511 5.08319 1.6227 4.58004 1.11955C4.0769 0.616405 3.39448 0.33374 2.68293 0.33374ZM1.46341 3.01667C1.46341 2.69323 1.5919 2.38304 1.8206 2.15434C2.0493 1.92564 2.35949 1.79715 2.68293 1.79715C3.00636 1.79715 3.31655 1.92564 3.54525 2.15434C3.77396 2.38304 3.90244 2.69323 3.90244 3.01667C3.90244 3.3401 3.77396 3.65029 3.54525 3.87899C3.31655 4.1077 3.00636 4.23618 2.68293 4.23618C2.35949 4.23618 2.0493 4.1077 1.8206 3.87899C1.5919 3.65029 1.46341 3.3401 1.46341 3.01667ZM0 6.91911C0 6.72505 0.0770903 6.53893 0.214312 6.40171C0.351534 6.26449 0.537646 6.1874 0.731707 6.1874H4.63415C4.82821 6.1874 5.01432 6.26449 5.15154 6.40171C5.28876 6.53893 5.36585 6.72505 5.36585 6.91911V19.602C5.36585 19.7961 5.28876 19.9822 5.15154 20.1194C5.01432 20.2567 4.82821 20.3337 4.63415 20.3337H0.731707C0.537646 20.3337 0.351534 20.2567 0.214312 20.1194C0.0770903 19.9822 0 19.7961 0 19.602V6.91911ZM1.46341 7.65081V18.8703H3.90244V7.65081H1.46341ZM6.82927 6.91911C6.82927 6.72505 6.90636 6.53893 7.04358 6.40171C7.1808 6.26449 7.36691 6.1874 7.56098 6.1874H11.4634C11.6575 6.1874 11.8436 6.26449 11.9808 6.40171C12.118 6.53893 12.1951 6.72505 12.1951 6.91911V7.34252L12.6195 7.16008C13.3513 6.8475 14.1275 6.65162 14.92 6.57959C17.6273 6.33374 20 8.46057 20 11.1923V19.602C20 19.7961 19.9229 19.9822 19.7857 20.1194C19.6485 20.2567 19.4624 20.3337 19.2683 20.3337H15.3659C15.1718 20.3337 14.9857 20.2567 14.8485 20.1194C14.7112 19.9822 14.6341 19.7961 14.6341 19.602V12.7728C14.6341 12.4493 14.5057 12.1391 14.277 11.9104C14.0483 11.6817 13.7381 11.5533 13.4146 11.5533C13.0912 11.5533 12.781 11.6817 12.5523 11.9104C12.3236 12.1391 12.1951 12.4493 12.1951 12.7728V19.602C12.1951 19.7961 12.118 19.9822 11.9808 20.1194C11.8436 20.2567 11.6575 20.3337 11.4634 20.3337H7.56098C7.36691 20.3337 7.1808 20.2567 7.04358 20.1194C6.90636 19.9822 6.82927 19.7961 6.82927 19.602V6.91911ZM8.29268 7.65081V18.8703H10.7317V12.7728C10.7317 12.0612 11.0144 11.3788 11.5175 10.8756C12.0207 10.3725 12.7031 10.0898 13.4146 10.0898C14.1262 10.0898 14.8086 10.3725 15.3118 10.8756C15.8149 11.3788 16.0976 12.0612 16.0976 12.7728V18.8703H18.5366V11.1923C18.5366 9.33472 16.9161 7.8674 15.0537 8.03716C14.4138 8.09521 13.787 8.25322 13.1961 8.50545L11.7522 9.12496C11.6408 9.1728 11.5193 9.19222 11.3986 9.18148C11.2779 9.17074 11.1617 9.13018 11.0605 9.06344C10.9593 8.99669 10.8763 8.90586 10.8189 8.7991C10.7615 8.69234 10.7316 8.573 10.7317 8.45179V7.65081H8.29268Z" fill="white"/>
</svg>
