<svg width="33" height="40" viewBox="0 0 33 40" fill="none" xmlns="http://www.w3.org/2000/svg">
<path d="M16.5 3.81069C13.1995 3.81069 10.0342 5.1218 7.70045 7.45558C5.36666 9.78937 4.05556 12.9547 4.05556 16.2551C4.05556 21.3431 7.22356 26.2516 10.7009 30.0542C12.4789 31.9914 14.419 33.7732 16.5 35.3805C16.8105 35.1422 17.175 34.8519 17.5933 34.5094C19.2641 33.1374 20.8366 31.6499 22.2991 30.0578C25.7764 26.2516 28.9444 21.3449 28.9444 16.2551C28.9444 12.9547 27.6333 9.78937 25.2996 7.45558C22.9658 5.1218 19.8005 3.81069 16.5 3.81069ZM16.5 39.7467L15.492 39.0534L15.4867 39.0498L15.476 39.0409L15.4404 39.016L15.3071 38.9218L14.8271 38.5716C12.3949 36.7436 10.1353 34.6966 8.07689 32.456C4.44311 28.4774 0.5 22.7191 0.5 16.2534C0.5 12.0099 2.18571 7.94023 5.18629 4.93965C8.18687 1.93907 12.2565 0.253357 16.5 0.253357C20.7435 0.253357 24.8131 1.93907 27.8137 4.93965C30.8143 7.94023 32.5 12.0099 32.5 16.2534C32.5 22.7191 28.5569 28.4791 24.9231 32.4525C22.8652 34.6929 20.6063 36.74 18.1747 38.568C17.9721 38.7193 17.7676 38.8681 17.5613 39.0142L17.524 39.0391L17.5133 39.048L17.5098 39.0498L16.5 39.7467ZM16.5 12.6996C15.557 12.6996 14.6526 13.0742 13.9858 13.741C13.319 14.4078 12.9444 15.3121 12.9444 16.2551C12.9444 17.1981 13.319 18.1025 13.9858 18.7693C14.6526 19.4361 15.557 19.8107 16.5 19.8107C17.443 19.8107 18.3474 19.4361 19.0142 18.7693C19.681 18.1025 20.0556 17.1981 20.0556 16.2551C20.0556 15.3121 19.681 14.4078 19.0142 13.741C18.3474 13.0742 17.443 12.6996 16.5 12.6996ZM9.38889 16.2551C9.38889 14.3692 10.1381 12.5604 11.4717 11.2268C12.8053 9.89323 14.614 9.14402 16.5 9.14402C18.386 9.14402 20.1947 9.89323 21.5283 11.2268C22.8619 12.5604 23.6111 14.3692 23.6111 16.2551C23.6111 18.1411 22.8619 19.9499 21.5283 21.2835C20.1947 22.617 18.386 23.3662 16.5 23.3662C14.614 23.3662 12.8053 22.617 11.4717 21.2835C10.1381 19.9499 9.38889 18.1411 9.38889 16.2551Z" fill="white"/>
</svg>
