<svg width="33" height="32" viewBox="0 0 33 32" fill="none" xmlns="http://www.w3.org/2000/svg">
<path d="M24.2871 32.0002C27.1336 32.0002 29.0155 31.231 30.6838 29.3659C30.815 29.2353 30.9295 29.088 31.0607 28.9568C32.0421 27.8609 32.5 26.7811 32.5 25.7508C32.5 24.5726 31.8131 23.4767 30.3571 22.4618L25.5966 19.1573C24.1238 18.1431 22.4059 18.0286 21.0315 19.3863L19.7723 20.6462C19.3954 21.0224 19.0687 21.0392 18.6925 20.8095C17.8255 20.2532 16.0421 18.6994 14.831 17.4891C13.5551 16.2291 12.3119 14.8226 11.6739 13.7917C11.4449 13.4147 11.4777 13.1041 11.854 12.7279L13.0972 11.4679C14.4716 10.0942 14.3571 8.35966 13.3429 6.90429L10.0217 2.1438C9.02351 0.687035 7.92762 0.0162386 6.74937 0.000184114C5.71909 -0.0165684 4.63925 0.458085 3.54336 1.4395C3.39608 1.57073 3.26485 1.6852 3.11757 1.79968C1.26922 3.46794 0.5 5.3498 0.5 8.17957C0.5 12.8591 3.37933 18.5521 8.66403 23.8361C13.9152 29.088 19.625 32.0002 24.2871 32.0002ZM24.3039 29.4803C20.1318 29.562 14.7829 26.356 10.5452 22.1351C6.27541 17.8813 2.92143 12.3516 3.0031 8.18027C3.0359 6.38008 3.65784 4.82629 4.95057 3.71365C5.04829 3.61592 5.14602 3.53356 5.26049 3.45189C5.73514 3.0261 6.27541 2.79785 6.73331 2.79785C7.22402 2.79785 7.64911 2.97724 7.96043 3.46794L11.1343 8.22844C11.4777 8.7359 11.5106 9.30897 11.0031 9.81573L9.56378 11.2557C8.41833 12.3844 8.51675 13.7588 9.33483 14.8547C10.2667 16.1147 11.8868 17.947 13.13 19.1901C14.3899 20.4501 16.3688 22.2167 17.6287 23.1654C18.7246 23.9834 20.1157 24.0658 21.2444 22.9364L22.6838 21.4971C23.1912 20.9896 23.7475 21.0224 24.2543 21.3498L29.0148 24.5237C29.5062 24.8504 29.7023 25.2594 29.7023 25.7508C29.7023 26.2255 29.4734 26.749 29.0322 27.239C28.9553 27.3466 28.8733 27.4505 28.7865 27.5503C27.6578 28.8263 26.1033 29.4475 24.3039 29.4803Z" fill="white"/>
</svg>
