<svg width="66" height="66" viewBox="0 0 66 66" fill="none" xmlns="http://www.w3.org/2000/svg">
<circle cx="33" cy="33" r="31.5" stroke="black" stroke-width="3"/>
<circle cx="33" cy="33" r="31.5" stroke="url(#paint0_linear_172_4364)" stroke-width="3"/>
<path d="M36.9917 33L48.1648 21.827C48.695 21.2976 48.9933 20.5793 48.994 19.8301C48.9946 19.0808 48.6976 18.362 48.1683 17.8317C47.639 17.3014 46.9207 17.0032 46.1714 17.0025C45.4221 17.0018 44.7033 17.2988 44.173 17.8282L33 29.0012L21.827 17.8282C21.2967 17.2979 20.5775 17 19.8276 17C19.0776 17 18.3584 17.2979 17.8282 17.8282C17.2979 18.3584 17 19.0776 17 19.8276C17 20.5775 17.2979 21.2967 17.8282 21.827L29.0012 33L17.8282 44.173C17.2979 44.7033 17 45.4225 17 46.1724C17 46.9224 17.2979 47.6416 17.8282 48.1718C18.3584 48.7021 19.0776 49 19.8276 49C20.5775 49 21.2967 48.7021 21.827 48.1718L33 36.9988L44.173 48.1718C44.7033 48.7021 45.4225 49 46.1724 49C46.9224 49 47.6416 48.7021 48.1718 48.1718C48.7021 47.6416 49 46.9224 49 46.1724C49 45.4225 48.7021 44.7033 48.1718 44.173L36.9917 33Z" fill="#B3B3B3"/>
<path d="M36.9917 33L48.1648 21.827C48.695 21.2976 48.9933 20.5793 48.994 19.8301C48.9946 19.0808 48.6976 18.362 48.1683 17.8317C47.639 17.3014 46.9207 17.0032 46.1714 17.0025C45.4221 17.0018 44.7033 17.2988 44.173 17.8282L33 29.0012L21.827 17.8282C21.2967 17.2979 20.5775 17 19.8276 17C19.0776 17 18.3584 17.2979 17.8282 17.8282C17.2979 18.3584 17 19.0776 17 19.8276C17 20.5775 17.2979 21.2967 17.8282 21.827L29.0012 33L17.8282 44.173C17.2979 44.7033 17 45.4225 17 46.1724C17 46.9224 17.2979 47.6416 17.8282 48.1718C18.3584 48.7021 19.0776 49 19.8276 49C20.5775 49 21.2967 48.7021 21.827 48.1718L33 36.9988L44.173 48.1718C44.7033 48.7021 45.4225 49 46.1724 49C46.9224 49 47.6416 48.7021 48.1718 48.1718C48.7021 47.6416 49 46.9224 49 46.1724C49 45.4225 48.7021 44.7033 48.1718 44.173L36.9917 33Z" fill="url(#paint1_linear_172_4364)"/>
<defs>
<linearGradient id="paint0_linear_172_4364" x1="3" y1="33" x2="63" y2="33" gradientUnits="userSpaceOnUse">
<stop stop-color="#1FA2FF"/>
<stop offset="0.5" stop-color="#12D8FA"/>
<stop offset="1" stop-color="#A6FFCB"/>
</linearGradient>
<linearGradient id="paint1_linear_172_4364" x1="17" y1="33" x2="49" y2="33" gradientUnits="userSpaceOnUse">
<stop stop-color="#1FA2FF"/>
<stop offset="0.5" stop-color="#12D8FA"/>
<stop offset="1" stop-color="#A6FFCB"/>
</linearGradient>
</defs>
</svg>
