<svg width="101" height="90" viewBox="0 0 101 90" fill="none" xmlns="http://www.w3.org/2000/svg">
<path d="M71.125 0C79.4583 0 86.4383 3.08333 92.065 9.25C97.6917 15.4167 100.503 22.75 100.5 31.25C100.5 32.75 100.417 34.23 100.25 35.69C100.083 37.15 99.7917 38.5867 99.375 40H68.125L59.625 27.25C59.2083 26.5833 58.625 26.0417 57.875 25.625C57.125 25.2083 56.3333 25 55.5 25C54.4167 25 53.4383 25.3333 52.565 26C51.6917 26.6667 51.0867 27.5 50.75 28.5L44 48.75L39.625 42.25C39.2083 41.5833 38.625 41.0417 37.875 40.625C37.125 40.2083 36.3333 40 35.5 40H1.625C1.20833 38.5833 0.916666 37.1467 0.75 35.69C0.583333 34.2333 0.5 32.795 0.5 31.375C0.5 22.7917 3.29167 15.4167 8.875 9.25C14.4583 3.08333 21.4167 0 29.75 0C33.75 0 37.5217 0.791666 41.065 2.375C44.6083 3.95833 47.7533 6.16667 50.5 9C53.1667 6.16667 56.2717 3.95833 59.815 2.375C63.3583 0.791666 67.1283 0 71.125 0ZM50.5 90C49 90 47.5633 89.73 46.19 89.19C44.8167 88.65 43.5867 87.8367 42.5 86.75L9 53.125C8.5 52.625 8.04167 52.125 7.625 51.625C7.20833 51.125 6.79167 50.5833 6.375 50H32.75L41.25 62.75C41.6667 63.4167 42.25 63.9583 43 64.375C43.75 64.7917 44.5417 65 45.375 65C46.4583 65 47.4583 64.6667 48.375 64C49.2917 63.3333 49.9167 62.5 50.25 61.5L57 41.25L61.25 47.75C61.75 48.4167 62.375 48.9583 63.125 49.375C63.875 49.7917 64.6667 50 65.5 50H94.5L93.25 51.5L92 53L58.375 86.75C57.2917 87.8333 56.0833 88.6467 54.75 89.19C53.4167 89.7333 52 90.0033 50.5 90Z" fill="url(#paint0_linear_168_3577)"/>
<defs>
<linearGradient id="paint0_linear_168_3577" x1="0.5" y1="45" x2="100.5" y2="45" gradientUnits="userSpaceOnUse">
<stop stop-color="#1FA2FF"/>
<stop offset="0.5" stop-color="#12D8FA"/>
<stop offset="1" stop-color="#A6FFCB"/>
</linearGradient>
</defs>
</svg>
