<svg width="81" height="110" viewBox="0 0 81 110" fill="none" xmlns="http://www.w3.org/2000/svg">
<path d="M15.5 20H65.5V30H75.5V10C75.5 4.5 71 0.05 65.5 0.05L15.5 0C10 0 5.5 4.5 5.5 10V30H15.5V20ZM57.55 77.95L80.5 55L57.55 32.05L50.5 39.15L66.35 55L50.5 70.85L57.55 77.95ZM30.5 70.85L14.65 55L30.5 39.15L23.45 32.05L0.5 55L23.45 77.95L30.5 70.85ZM65.5 90H15.5V80H5.5V100C5.5 105.5 10 110 15.5 110H65.5C71 110 75.5 105.5 75.5 100V80H65.5V90Z" fill="#368AC7"/>
<path d="M15.5 20H65.5V30H75.5V10C75.5 4.5 71 0.05 65.5 0.05L15.5 0C10 0 5.5 4.5 5.5 10V30H15.5V20ZM57.55 77.95L80.5 55L57.55 32.05L50.5 39.15L66.35 55L50.5 70.85L57.55 77.95ZM30.5 70.85L14.65 55L30.5 39.15L23.45 32.05L0.5 55L23.45 77.95L30.5 70.85ZM65.5 90H15.5V80H5.5V100C5.5 105.5 10 110 15.5 110H65.5C71 110 75.5 105.5 75.5 100V80H65.5V90Z" fill="url(#paint0_linear_3133_237)"/>
<defs>
<linearGradient id="paint0_linear_3133_237" x1="0.5" y1="55" x2="80.5" y2="55" gradientUnits="userSpaceOnUse">
<stop stop-color="#1FA2FF"/>
<stop offset="0.5" stop-color="#12D8FA"/>
<stop offset="1" stop-color="#A6FFCB"/>
</linearGradient>
</defs>
</svg>
