<svg width="24" height="17" viewBox="0 0 24 17" fill="none" xmlns="http://www.w3.org/2000/svg">
<path fill-rule="evenodd" clip-rule="evenodd" d="M21.7499 8.26826C21.7499 7.87044 21.5919 7.48891 21.3106 7.20761C21.0292 6.92631 20.6477 6.76827 20.2499 6.76827H1.49999C1.10217 6.76827 0.720641 6.92631 0.439338 7.20761C0.158035 7.48891 0 7.87044 0 8.26826C0 8.66609 0.158035 9.04762 0.439338 9.32892C0.720641 9.61022 1.10217 9.76826 1.49999 9.76826H20.2499C20.6477 9.76826 21.0292 9.61022 21.3106 9.32892C21.5919 9.04762 21.7499 8.66609 21.7499 8.26826Z" fill="url(#paint0_linear_3144_251)"/>
<path fill-rule="evenodd" clip-rule="evenodd" d="M24.0001 8.26839C24 7.8706 23.8419 7.48913 23.5606 7.2079L16.8106 0.45793C16.6722 0.314666 16.5067 0.200393 16.3237 0.12178C16.1407 0.0431666 15.9439 0.00178735 15.7447 5.66343e-05C15.5455 -0.00167408 15.348 0.0362787 15.1637 0.1117C14.9793 0.187121 14.8119 0.2985 14.671 0.439338C14.5302 0.580176 14.4188 0.747654 14.3434 0.931997C14.268 1.11634 14.23 1.31386 14.2317 1.51303C14.2335 1.71219 14.2749 1.90902 14.3535 2.09203C14.4321 2.27503 14.5464 2.44055 14.6896 2.57892L20.3791 8.26839L14.6896 13.9579C14.4082 14.2391 14.25 14.6207 14.2498 15.0186C14.2497 15.4165 14.4076 15.7981 14.6889 16.0796C14.9701 16.3611 15.3517 16.5193 15.7496 16.5194C16.1475 16.5195 16.5291 16.3616 16.8106 16.0804L23.5606 9.33038C23.7001 9.19095 23.8107 9.02538 23.8861 8.84315C23.9615 8.66092 24.0002 8.46561 24.0001 8.26839Z" fill="url(#paint1_linear_3144_251)"/>
<defs>
<linearGradient id="paint0_linear_3144_251" x1="0" y1="8.26826" x2="21.7499" y2="8.26826" gradientUnits="userSpaceOnUse">
<stop stop-color="#1FA2FF"/>
<stop offset="0.5" stop-color="#12D8FA"/>
<stop offset="1" stop-color="#A6FFCB"/>
</linearGradient>
<linearGradient id="paint1_linear_3144_251" x1="14.2317" y1="8.2597" x2="24.0001" y2="8.2597" gradientUnits="userSpaceOnUse">
<stop stop-color="#1FA2FF"/>
<stop offset="0.5" stop-color="#12D8FA"/>
<stop offset="1" stop-color="#A6FFCB"/>
</linearGradient>
</defs>
</svg>
